<svg version="1.1" id="Layer_1" xmlns="http://www.w3.org/2000/svg" xmlns:xlink="http://www.w3.org/1999/xlink" x="0px" y="0px"
        width="100%" viewBox="0 0 764 239" enable-background="new 0 0 764 239" xml:space="preserve">
   <path fill="#FFFFFF" opacity="0.000000" stroke="none" 
       d="
   M548.000000,240.000000 
       C365.333344,240.000000 183.166718,240.000000 1.000049,240.000000 
       C1.000033,160.333359 1.000033,80.666733 1.000016,1.000070 
       C255.666611,1.000047 510.333221,1.000047 764.999878,1.000023 
       C764.999878,80.666595 764.999878,160.333191 764.999939,239.999893 
       C692.833313,240.000000 620.666687,240.000000 548.000000,240.000000 
   M234.648254,138.500122 
       C234.648285,111.167427 234.657150,83.834724 234.644318,56.502037 
       C234.638611,44.368755 229.345886,39.001789 217.398270,39.000198 
       C166.899429,38.993473 116.400589,38.991333 65.901749,39.001804 
       C54.466869,39.004173 49.009335,44.418152 49.005489,55.792831 
       C48.990402,100.458466 48.989822,145.124115 49.006809,189.789749 
       C49.011116,201.104309 54.525642,206.589035 65.942818,206.593643 
       C116.441650,206.614014 166.940506,206.611069 217.439346,206.595810 
       C229.156937,206.592270 234.622467,201.151505 234.641357,189.498978 
       C234.668365,172.832733 234.648178,156.166428 234.648254,138.500122 
   M472.004578,96.397163 
       C471.022552,90.594185 466.683014,91.560852 462.795929,91.975639 
       C458.073547,92.479553 460.097290,96.297531 460.074432,98.643265 
       C459.905823,115.949776 459.976654,133.258682 459.994537,150.566833 
       C459.996185,152.149902 460.154480,153.732819 460.234436,155.211884 
       C464.066711,155.211884 467.434540,155.211884 471.046295,155.211884 
       C471.046295,143.450897 471.046295,132.215057 471.046295,119.546936 
       C472.444397,122.156593 473.224335,123.391571 473.796722,124.716240 
       C477.794769,133.968307 481.960510,143.156708 485.624481,152.540436 
       C487.310272,156.857910 490.373810,155.730270 493.395782,155.641342 
       C496.926636,155.537430 496.547760,152.983353 496.546906,150.639343 
       C496.540527,133.497604 496.565308,116.355804 496.518677,99.214195 
       C496.512085,96.795380 496.171143,94.377472 496.000702,92.163727 
       C492.118866,92.163727 488.853546,92.163727 485.560516,92.163727 
       C485.560516,104.226532 485.560516,115.934799 485.560516,127.643059 
       C485.351013,127.669250 485.141510,127.695442 484.932007,127.721634 
       C480.667358,117.529968 476.402679,107.338303 472.004578,96.397163 
   M626.452454,136.968857 
       C628.549988,141.473114 630.599060,146.000763 632.757202,150.475815 
       C635.574707,156.318298 640.280762,157.696213 647.148926,154.442032 
       C642.790405,145.606873 638.430054,136.767899 634.169312,128.130951 
       C636.362793,125.834763 638.349243,124.042030 639.995850,121.978111 
       C645.046326,115.647591 645.349487,108.661705 642.167603,101.483948 
       C639.047852,94.446342 633.362061,91.486069 625.775940,91.796677 
       C622.782471,91.919250 619.757812,92.045471 616.786743,91.760071 
       C612.905579,91.387230 611.892273,93.168594 611.943970,96.684471 
       C612.076111,105.672073 611.987976,114.662910 611.987976,123.652458 
       C611.987976,134.243668 611.988037,144.834869 611.988037,155.316147 
       C622.539917,156.785370 622.538940,156.785370 622.534241,146.981796 
       C622.531860,141.995987 622.533813,137.010178 622.533813,132.024353 
       C622.972778,132.005402 623.411804,131.986435 623.850769,131.967468 
       C624.596436,133.406250 625.342041,134.845032 626.452454,136.968857 
   M416.812897,112.708214 
       C416.696350,125.363312 416.765900,138.024261 416.368835,150.670547 
       C416.216705,155.516052 418.447693,155.905670 422.390472,155.986023 
       C426.680847,156.073486 427.351471,154.215302 427.212769,150.572540 
       C426.978363,144.414917 427.148499,138.241913 427.148499,132.075378 
       C427.618256,132.003906 428.088013,131.932434 428.557770,131.860962 
       C431.851166,138.882401 435.113495,145.918793 438.470917,152.909500 
       C438.985687,153.981339 439.872375,155.596344 440.701477,155.669861 
       C444.196960,155.979843 447.735809,155.801025 452.333282,155.801025 
       C447.391327,145.809555 443.074524,137.081955 438.791748,128.423218 
       C440.965515,126.004295 443.148346,123.948715 444.887390,121.568825 
       C449.759094,114.902039 449.897491,107.880188 446.278137,100.525124 
       C442.845062,93.548714 436.988983,91.553635 429.808716,91.798973 
       C426.979309,91.895653 424.127563,92.007095 421.315155,91.768196 
       C417.456024,91.440369 416.288391,93.277344 416.439087,96.787529 
       C416.653107,101.773575 416.696533,106.766945 416.812897,112.708214 
   M393.439758,127.872902 
       C387.476898,115.937416 381.514008,104.001930 375.124359,91.212158 
       C364.117310,113.230095 353.523376,134.421646 342.913879,155.644318 
       C364.605316,155.644318 385.743225,155.644318 407.307281,155.644318 
       C402.661896,146.281738 398.251343,137.392502 393.439758,127.872902 
   M333.859009,151.135513 
       C333.765778,143.253830 333.765930,143.242432 326.280762,143.144348 
       C323.492462,143.107803 320.703308,143.138428 317.936462,143.138428 
       C317.936462,137.390717 317.936462,132.164551 317.936462,126.548294 
       C321.933594,126.548294 325.557465,126.508316 329.180115,126.558136 
       C334.018066,126.624649 333.007751,123.051666 333.192261,120.214203 
       C333.402161,116.985703 332.250000,115.209846 328.642731,115.413818 
       C325.080750,115.615234 321.498413,115.457825 317.440796,115.457825 
       C317.667084,110.696243 317.859528,106.646584 318.077301,102.063339 
       C323.550140,102.063339 328.467224,102.063339 333.989410,102.063339 
       C333.751678,98.100662 333.550018,94.739296 333.353210,91.458290 
       C325.004578,91.458290 317.367493,91.320854 309.746277,91.607285 
       C308.610168,91.649986 306.609650,93.671875 306.593109,94.801369 
       C306.320160,113.416023 306.315979,132.034485 306.210754,150.651871 
       C306.193726,153.666901 307.305847,155.251587 310.568420,155.194077 
       C316.889069,155.082703 323.223785,155.357544 329.527679,155.013840 
       C331.016022,154.932678 332.405273,153.033356 333.859009,151.135513 
   M714.415161,91.453339 
       C709.918457,91.453613 705.416626,91.585602 700.926636,91.411919 
       C697.421570,91.276329 695.737183,92.394470 695.760315,96.204018 
       C695.869263,114.167725 695.914978,132.133621 695.723022,150.095963 
       C695.680237,154.099792 697.605896,154.877319 700.831238,154.864929 
       C706.660278,154.842529 712.491150,154.774185 718.317932,154.891006 
       C722.072449,154.966278 723.261841,153.192657 723.067688,149.654175 
       C722.881226,146.256699 723.436951,142.659531 718.271179,142.789062 
       C714.653809,142.879776 711.032349,142.806564 707.267578,142.806564 
       C707.267578,137.014282 707.267578,131.806732 707.267578,126.194839 
       C710.810913,126.194839 713.992981,125.871620 717.082397,126.268745 
       C722.018799,126.903290 722.734863,124.096321 722.506104,120.333206 
       C722.408752,118.731499 721.999695,117.148743 721.655701,115.101830 
       C716.674561,115.101830 711.956116,115.101830 706.778320,115.101830 
       C707.015564,110.510254 707.224487,106.465607 707.455994,101.985565 
       C713.038696,101.985565 717.803955,101.985565 722.473633,101.985565 
       C724.023254,91.289146 723.554016,90.631050 714.415161,91.453339 
   M555.983276,138.568497 
       C559.885254,123.258614 563.787170,107.948738 567.806335,92.179108 
       C565.204102,91.995781 563.892578,92.001869 562.615234,91.795914 
       C557.741577,91.010101 555.281677,92.865234 554.694885,97.945999 
       C554.241272,101.873985 552.880371,105.693687 551.975342,109.573799 
       C550.246277,116.986938 548.554565,124.408798 546.847351,131.827042 
       C545.668274,130.869598 545.324036,129.983749 545.110046,129.067459 
       C542.476624,117.791191 539.920654,106.496193 537.163269,95.250504 
       C536.849426,93.970367 535.561951,92.148262 534.504333,91.981346 
       C531.624817,91.526886 528.626587,91.825172 525.232117,91.825172 
       C525.791809,94.460701 526.133606,96.390282 526.614380,98.284584 
       C531.003235,115.577271 535.537781,132.834427 539.730774,150.174286 
       C540.695068,154.161942 542.058899,155.924744 546.540649,156.052216 
       C551.058899,156.180725 552.257812,154.032639 553.024902,150.485535 
       C553.832092,146.753265 554.795349,143.054733 555.983276,138.568497 
   M587.202148,129.340088 
       C588.328308,128.291702 589.337952,126.550316 590.604614,126.337242 
       C593.355530,125.874504 596.237671,126.187447 599.066162,126.192047 
       C603.981018,126.200043 602.798340,122.370277 602.929749,119.680275 
       C603.061584,116.980759 602.286621,114.874680 598.592590,115.262146 
       C594.904846,115.648941 591.144897,115.346985 586.942993,115.346985 
       C587.316040,110.465561 587.623718,106.440262 587.970520,101.902092 
       C593.514038,101.902092 598.411072,101.902092 603.671448,101.902092 
       C603.416870,98.071297 603.202209,94.840416 602.978699,91.476395 
       C594.719055,91.476395 586.917236,91.318375 579.137695,91.662567 
       C578.083191,91.709213 576.289795,94.264297 576.274292,95.673706 
       C576.074829,113.802322 576.218689,131.934525 576.060974,150.063950 
       C576.030212,153.597061 577.407288,154.843765 580.669495,154.827103 
       C586.658264,154.796539 592.647400,154.856827 598.636414,154.850601 
       C601.759766,154.847366 603.798157,153.692368 603.373108,150.116592 
       C602.987610,146.873978 604.189148,142.628326 598.540283,142.789154 
       C594.935852,142.891769 591.326050,142.808350 587.192810,142.808350 
       C587.192810,138.274200 587.192810,134.326767 587.202148,129.340088 
   M659.875244,154.800003 
       C663.158569,155.207062 666.444397,155.980392 669.724731,155.957596 
       C683.725586,155.860306 691.696960,141.852707 684.335266,129.931091 
       C681.860168,125.922981 678.101685,122.684250 674.797424,119.220093 
       C672.855347,117.184021 669.809937,115.763153 668.782898,113.403152 
       C667.525696,110.514526 666.696045,106.453705 667.799194,103.770309 
       C669.220520,100.313263 673.114380,100.611298 676.491089,102.294128 
       C677.566345,102.830009 678.909302,102.828835 680.128357,103.073128 
       C680.847778,101.315697 681.361145,99.931007 681.973022,98.591301 
       C683.897461,94.377663 682.112183,92.666649 677.960266,91.825302 
       C670.533875,90.320412 662.628723,93.338097 658.998352,99.456001 
       C654.622498,106.830376 655.245117,114.219070 661.107483,120.367226 
       C664.998474,124.447861 669.344238,128.093307 673.262024,132.150299 
       C676.288452,135.284271 677.043274,139.209656 675.031738,143.131973 
       C673.137390,146.825668 669.464783,147.002945 665.938904,146.348297 
       C664.226196,146.030273 662.708496,144.749756 661.047241,144.033310 
       C660.071838,143.612686 658.129028,143.092560 658.079346,143.214066 
       C657.092651,145.624130 655.793884,148.106201 655.720642,150.607697 
       C655.682922,151.893494 657.907776,153.245575 659.875244,154.800003 
   M271.005035,154.213165 
       C271.802704,154.809753 272.594330,155.913742 273.399017,155.923340 
       C280.385895,156.006744 287.378845,156.013641 294.362335,155.797150 
       C299.066711,155.651291 297.168152,151.824921 297.486115,149.379929 
       C297.815399,146.847794 297.478180,144.746552 293.946564,144.942032 
       C290.040558,145.158234 286.113342,144.991440 281.549805,144.991440 
       C281.549805,126.871445 281.549805,109.497414 281.549805,92.135025 
       C277.626984,92.135025 274.371399,92.135025 270.992767,92.135025 
       C270.992767,112.717453 270.992767,132.987503 271.005035,154.213165 
   M516.863037,125.495377 
       C516.758362,115.857758 516.409363,106.214241 516.641846,96.584763 
       C516.778259,90.936386 513.017578,91.796761 509.684937,91.441322 
       C505.741516,91.020729 505.049377,93.082489 505.074829,96.547203 
       C505.208344,114.705666 505.145294,132.865631 505.128326,151.025055 
       C505.125946,153.594910 504.755615,156.481125 508.821472,155.542175 
       C511.951172,154.819382 517.187378,157.875320 517.046997,150.985687 
       C516.880798,142.824799 516.915283,134.659821 516.863037,125.495377 
   z"/>
   <path fill="#025E6D" opacity="1.000000" stroke="none" 
       d="
   M234.648193,139.000122 
       C234.648178,156.166428 234.668365,172.832733 234.641357,189.498978 
       C234.622467,201.151505 229.156937,206.592270 217.439346,206.595810 
       C166.940506,206.611069 116.441650,206.614014 65.942818,206.593643 
       C54.525642,206.589035 49.011116,201.104309 49.006809,189.789749 
       C48.989822,145.124115 48.990402,100.458466 49.005489,55.792831 
       C49.009335,44.418152 54.466869,39.004173 65.901749,39.001804 
       C116.400589,38.991333 166.899429,38.993473 217.398270,39.000198 
       C229.345886,39.001789 234.638611,44.368755 234.644318,56.502037 
       C234.657150,83.834724 234.648285,111.167427 234.648193,139.000122 
   M133.294342,164.355911 
       C140.257706,166.857361 147.050369,170.530746 154.225861,171.575882 
       C164.112946,173.015945 169.278793,166.943329 167.710907,157.148499 
       C167.155304,153.677597 168.854019,152.730103 171.230286,152.155533 
       C181.196014,149.745926 188.209518,143.561081 193.069336,134.889145 
       C196.584595,128.616470 194.318741,122.331032 187.908020,119.056839 
       C186.599960,118.388763 185.259567,117.784004 184.008453,116.450676 
       C184.011246,115.982368 184.014038,115.514061 184.024490,114.184662 
       C185.005554,105.176727 184.976715,96.241486 180.804153,87.921219 
       C176.227783,78.795799 169.686539,77.012657 161.470276,82.893242 
       C157.993011,85.381996 155.543686,85.351929 153.032791,82.133621 
       C153.032791,82.133621 153.096497,82.161911 153.026505,81.406807 
       C152.941818,80.919151 153.028961,80.163528 152.747375,79.982956 
       C145.385605,75.262253 137.610016,71.444633 128.591766,72.281609 
       C120.787270,73.005951 116.645500,79.157875 118.244606,86.791794 
       C118.577179,88.379463 119.080002,89.931473 119.670425,92.113686 
       C116.610046,92.360878 113.287277,91.751122 110.968361,93.002136 
       C106.356209,95.490311 101.751724,98.469780 98.111595,102.192368 
       C87.584465,112.957977 89.898399,124.138290 104.238190,127.014221 
       C104.496353,127.065994 104.700188,127.388618 105.023254,127.665253 
       C103.054283,141.055496 112.876656,148.089661 120.952858,155.968704 
       C116.704582,160.156265 113.577667,160.215210 110.490631,156.011902 
       C108.859673,153.791168 107.357521,151.242081 106.664169,148.612625 
       C104.946701,142.099304 103.728165,135.454422 102.217590,128.436966 
       C101.515350,138.417633 101.035950,147.955185 105.696381,156.848114 
       C110.372902,165.771744 118.934952,167.089951 126.011681,160.033768 
       C126.834961,159.212875 127.617867,158.351501 128.540512,157.381699 
       C129.839676,158.502533 131.181580,159.660263 131.845596,160.881165 
       C128.583344,162.867004 131.864243,163.089905 133.294342,164.355911 
   z"/>
   <path fill="#090D43" opacity="1.000000" stroke="none" 
       d="
   M472.071289,96.771896 
       C476.402679,107.338303 480.667358,117.529968 484.932007,127.721634 
       C485.141510,127.695442 485.351013,127.669250 485.560516,127.643059 
       C485.560516,115.934799 485.560516,104.226532 485.560516,92.163727 
       C488.853546,92.163727 492.118866,92.163727 496.000702,92.163727 
       C496.171143,94.377472 496.512085,96.795380 496.518677,99.214195 
       C496.565308,116.355804 496.540527,133.497604 496.546906,150.639343 
       C496.547760,152.983353 496.926636,155.537430 493.395782,155.641342 
       C490.373810,155.730270 487.310272,156.857910 485.624481,152.540436 
       C481.960510,143.156708 477.794769,133.968307 473.796722,124.716240 
       C473.224335,123.391571 472.444397,122.156593 471.046295,119.546936 
       C471.046295,132.215057 471.046295,143.450897 471.046295,155.211884 
       C467.434540,155.211884 464.066711,155.211884 460.234436,155.211884 
       C460.154480,153.732819 459.996185,152.149902 459.994537,150.566833 
       C459.976654,133.258682 459.905823,115.949776 460.074432,98.643265 
       C460.097290,96.297531 458.073547,92.479553 462.795929,91.975639 
       C466.683014,91.560852 471.022552,90.594185 472.071289,96.771896 
   z"/>
   <path fill="#060A41" opacity="1.000000" stroke="none" 
       d="
   M626.270081,136.626328 
       C625.342041,134.845032 624.596436,133.406250 623.850769,131.967468 
       C623.411804,131.986435 622.972778,132.005402 622.533813,132.024353 
       C622.533813,137.010178 622.531860,141.995987 622.534241,146.981796 
       C622.538940,156.785370 622.539917,156.785370 611.988037,155.316147 
       C611.988037,144.834869 611.987976,134.243668 611.987976,123.652458 
       C611.987976,114.662910 612.076111,105.672073 611.943970,96.684471 
       C611.892273,93.168594 612.905579,91.387230 616.786743,91.760071 
       C619.757812,92.045471 622.782471,91.919250 625.775940,91.796677 
       C633.362061,91.486069 639.047852,94.446342 642.167603,101.483948 
       C645.349487,108.661705 645.046326,115.647591 639.995850,121.978111 
       C638.349243,124.042030 636.362793,125.834763 634.169312,128.130951 
       C638.430054,136.767899 642.790405,145.606873 647.148926,154.442032 
       C640.280762,157.696213 635.574707,156.318298 632.757202,150.475815 
       C630.599060,146.000763 628.549988,141.473114 626.270081,136.626328 
   M631.842834,116.997116 
       C632.240601,115.242355 632.779724,113.505760 633.007996,111.729218 
       C633.561340,107.423004 631.770081,104.300636 627.742798,102.708992 
       C625.057495,101.647728 622.774414,101.787170 622.723999,105.618256 
       C622.676208,109.250832 622.387390,112.887405 622.510071,116.511871 
       C622.566345,118.174873 623.354309,119.813103 623.810425,121.462555 
       C625.526306,120.988022 627.322205,120.692123 628.928345,119.972572 
       C629.905762,119.534668 630.590515,118.443344 631.842834,116.997116 
   z"/>
   <path fill="#070B42" opacity="1.000000" stroke="none" 
       d="
   M416.812866,112.232697 
       C416.696533,106.766945 416.653107,101.773575 416.439087,96.787529 
       C416.288391,93.277344 417.456024,91.440369 421.315155,91.768196 
       C424.127563,92.007095 426.979309,91.895653 429.808716,91.798973 
       C436.988983,91.553635 442.845062,93.548714 446.278137,100.525124 
       C449.897491,107.880188 449.759094,114.902039 444.887390,121.568825 
       C443.148346,123.948715 440.965515,126.004295 438.791748,128.423218 
       C443.074524,137.081955 447.391327,145.809555 452.333282,155.801025 
       C447.735809,155.801025 444.196960,155.979843 440.701477,155.669861 
       C439.872375,155.596344 438.985687,153.981339 438.470917,152.909500 
       C435.113495,145.918793 431.851166,138.882401 428.557770,131.860962 
       C428.088013,131.932434 427.618256,132.003906 427.148499,132.075378 
       C427.148499,138.241913 426.978363,144.414917 427.212769,150.572540 
       C427.351471,154.215302 426.680847,156.073486 422.390472,155.986023 
       C418.447693,155.905670 416.216705,155.516052 416.368835,150.670547 
       C416.765900,138.024261 416.696350,125.363312 416.812866,112.232697 
   M427.059143,117.041100 
       C427.507355,118.808113 425.995026,121.713097 429.905151,121.394745 
       C434.072235,121.055466 436.974274,117.885246 437.618439,112.526604 
       C438.207825,107.623863 436.146027,103.694130 432.298187,102.587440 
       C429.153198,101.682892 427.079956,102.385887 427.123413,106.213356 
       C427.161011,109.523888 427.038574,112.836243 427.059143,117.041100 
   z"/>
   <path fill="#0B0F44" opacity="1.000000" stroke="none" 
       d="
   M393.640259,128.188080 
       C398.251343,137.392502 402.661896,146.281738 407.307281,155.644318 
       C385.743225,155.644318 364.605316,155.644318 342.913879,155.644318 
       C353.523376,134.421646 364.117310,113.230095 375.124359,91.212158 
       C381.514008,104.001930 387.476898,115.937416 393.640259,128.188080 
   M376.529785,134.515091 
       C372.407257,133.872238 369.821198,135.334686 369.388397,139.640549 
       C377.207031,139.640549 385.030426,139.640549 393.320557,139.640549 
       C387.251404,127.524132 381.422241,115.886856 375.112640,103.290375 
       C367.001343,119.545921 359.331543,134.916687 351.576538,150.458191 
       C367.665100,150.458191 382.844269,150.458191 398.114258,150.458191 
       C397.625977,146.248260 395.615906,144.975174 391.705597,145.078354 
       C381.481354,145.348145 371.245239,145.169266 360.169647,145.169266 
       C365.333771,134.874069 370.093384,125.385384 375.171509,115.261627 
       C378.522888,122.050690 381.419434,127.918327 384.675812,134.514984 
       C381.658142,134.514984 379.546967,134.514984 376.529785,134.515091 
   z"/>
   <path fill="#0B0F45" opacity="1.000000" stroke="none" 
       d="
   M333.849548,151.552979 
       C332.405273,153.033356 331.016022,154.932678 329.527679,155.013840 
       C323.223785,155.357544 316.889069,155.082703 310.568420,155.194077 
       C307.305847,155.251587 306.193726,153.666901 306.210754,150.651871 
       C306.315979,132.034485 306.320160,113.416023 306.593109,94.801369 
       C306.609650,93.671875 308.610168,91.649986 309.746277,91.607285 
       C317.367493,91.320854 325.004578,91.458290 333.353210,91.458290 
       C333.550018,94.739296 333.751678,98.100662 333.989410,102.063339 
       C328.467224,102.063339 323.550140,102.063339 318.077301,102.063339 
       C317.859528,106.646584 317.667084,110.696243 317.440796,115.457825 
       C321.498413,115.457825 325.080750,115.615234 328.642731,115.413818 
       C332.250000,115.209846 333.402161,116.985703 333.192261,120.214203 
       C333.007751,123.051666 334.018066,126.624649 329.180115,126.558136 
       C325.557465,126.508316 321.933594,126.548294 317.936462,126.548294 
       C317.936462,132.164551 317.936462,137.390717 317.936462,143.138428 
       C320.703308,143.138428 323.492462,143.107803 326.280762,143.144348 
       C333.765930,143.242432 333.765778,143.253830 333.849548,151.552979 
   z"/>
   <path fill="#0A0D43" opacity="1.000000" stroke="none" 
       d="
   M714.896851,91.451691 
       C723.554016,90.631050 724.023254,91.289146 722.473633,101.985565 
       C717.803955,101.985565 713.038696,101.985565 707.455994,101.985565 
       C707.224487,106.465607 707.015564,110.510254 706.778320,115.101830 
       C711.956116,115.101830 716.674561,115.101830 721.655701,115.101830 
       C721.999695,117.148743 722.408752,118.731499 722.506104,120.333206 
       C722.734863,124.096321 722.018799,126.903290 717.082397,126.268745 
       C713.992981,125.871620 710.810913,126.194839 707.267578,126.194839 
       C707.267578,131.806732 707.267578,137.014282 707.267578,142.806564 
       C711.032349,142.806564 714.653809,142.879776 718.271179,142.789062 
       C723.436951,142.659531 722.881226,146.256699 723.067688,149.654175 
       C723.261841,153.192657 722.072449,154.966278 718.317932,154.891006 
       C712.491150,154.774185 706.660278,154.842529 700.831238,154.864929 
       C697.605896,154.877319 695.680237,154.099792 695.723022,150.095963 
       C695.914978,132.133621 695.869263,114.167725 695.760315,96.204018 
       C695.737183,92.394470 697.421570,91.276329 700.926636,91.411919 
       C705.416626,91.585602 709.918457,91.453613 714.896851,91.451691 
   z"/>
   <path fill="#080C42" opacity="1.000000" stroke="none" 
       d="
   M555.836853,138.954987 
       C554.795349,143.054733 553.832092,146.753265 553.024902,150.485535 
       C552.257812,154.032639 551.058899,156.180725 546.540649,156.052216 
       C542.058899,155.924744 540.695068,154.161942 539.730774,150.174286 
       C535.537781,132.834427 531.003235,115.577271 526.614380,98.284584 
       C526.133606,96.390282 525.791809,94.460701 525.232117,91.825172 
       C528.626587,91.825172 531.624817,91.526886 534.504333,91.981346 
       C535.561951,92.148262 536.849426,93.970367 537.163269,95.250504 
       C539.920654,106.496193 542.476624,117.791191 545.110046,129.067459 
       C545.324036,129.983749 545.668274,130.869598 546.847351,131.827042 
       C548.554565,124.408798 550.246277,116.986938 551.975342,109.573799 
       C552.880371,105.693687 554.241272,101.873985 554.694885,97.945999 
       C555.281677,92.865234 557.741577,91.010101 562.615234,91.795914 
       C563.892578,92.001869 565.204102,91.995781 567.806335,92.179108 
       C563.787170,107.948738 559.885254,123.258614 555.836853,138.954987 
   z"/>
   <path fill="#090C43" opacity="1.000000" stroke="none" 
       d="
   M587.197510,129.859711 
       C587.192810,134.326767 587.192810,138.274200 587.192810,142.808350 
       C591.326050,142.808350 594.935852,142.891769 598.540283,142.789154 
       C604.189148,142.628326 602.987610,146.873978 603.373108,150.116592 
       C603.798157,153.692368 601.759766,154.847366 598.636414,154.850601 
       C592.647400,154.856827 586.658264,154.796539 580.669495,154.827103 
       C577.407288,154.843765 576.030212,153.597061 576.060974,150.063950 
       C576.218689,131.934525 576.074829,113.802322 576.274292,95.673706 
       C576.289795,94.264297 578.083191,91.709213 579.137695,91.662567 
       C586.917236,91.318375 594.719055,91.476395 602.978699,91.476395 
       C603.202209,94.840416 603.416870,98.071297 603.671448,101.902092 
       C598.411072,101.902092 593.514038,101.902092 587.970520,101.902092 
       C587.623718,106.440262 587.316040,110.465561 586.942993,115.346985 
       C591.144897,115.346985 594.904846,115.648941 598.592590,115.262146 
       C602.286621,114.874680 603.061584,116.980759 602.929749,119.680275 
       C602.798340,122.370277 603.981018,126.200043 599.066162,126.192047 
       C596.237671,126.187447 593.355530,125.874504 590.604614,126.337242 
       C589.337952,126.550316 588.328308,128.291702 587.197510,129.859711 
   z"/>
   <path fill="#0B0F45" opacity="1.000000" stroke="none" 
       d="
   M659.492737,154.683853 
       C657.907776,153.245575 655.682922,151.893494 655.720642,150.607697 
       C655.793884,148.106201 657.092651,145.624130 658.079346,143.214066 
       C658.129028,143.092560 660.071838,143.612686 661.047241,144.033310 
       C662.708496,144.749756 664.226196,146.030273 665.938904,146.348297 
       C669.464783,147.002945 673.137390,146.825668 675.031738,143.131973 
       C677.043274,139.209656 676.288452,135.284271 673.262024,132.150299 
       C669.344238,128.093307 664.998474,124.447861 661.107483,120.367226 
       C655.245117,114.219070 654.622498,106.830376 658.998352,99.456001 
       C662.628723,93.338097 670.533875,90.320412 677.960266,91.825302 
       C682.112183,92.666649 683.897461,94.377663 681.973022,98.591301 
       C681.361145,99.931007 680.847778,101.315697 680.128357,103.073128 
       C678.909302,102.828835 677.566345,102.830009 676.491089,102.294128 
       C673.114380,100.611298 669.220520,100.313263 667.799194,103.770309 
       C666.696045,106.453705 667.525696,110.514526 668.782898,113.403152 
       C669.809937,115.763153 672.855347,117.184021 674.797424,119.220093 
       C678.101685,122.684250 681.860168,125.922981 684.335266,129.931091 
       C691.696960,141.852707 683.725586,155.860306 669.724731,155.957596 
       C666.444397,155.980392 663.158569,155.207062 659.492737,154.683853 
   z"/>
   <path fill="#050940" opacity="1.000000" stroke="none" 
       d="
   M270.998901,153.735352 
       C270.992767,132.987503 270.992767,112.717453 270.992767,92.135025 
       C274.371399,92.135025 277.626984,92.135025 281.549805,92.135025 
       C281.549805,109.497414 281.549805,126.871445 281.549805,144.991440 
       C286.113342,144.991440 290.040558,145.158234 293.946564,144.942032 
       C297.478180,144.746552 297.815399,146.847794 297.486115,149.379929 
       C297.168152,151.824921 299.066711,155.651291 294.362335,155.797150 
       C287.378845,156.013641 280.385895,156.006744 273.399017,155.923340 
       C272.594330,155.913742 271.802704,154.809753 270.998901,153.735352 
   z"/>
   <path fill="#0A0E44" opacity="1.000000" stroke="none" 
       d="
   M516.862915,125.995995 
       C516.915283,134.659821 516.880798,142.824799 517.046997,150.985687 
       C517.187378,157.875320 511.951172,154.819382 508.821472,155.542175 
       C504.755615,156.481125 505.125946,153.594910 505.128326,151.025055 
       C505.145294,132.865631 505.208344,114.705666 505.074829,96.547203 
       C505.049377,93.082489 505.741516,91.020729 509.684937,91.441322 
       C513.017578,91.796761 516.778259,90.936386 516.641846,96.584763 
       C516.409363,106.214241 516.758362,115.857758 516.862915,125.995995 
   z"/>
   <path fill="#F3F7F8" opacity="1.000000" stroke="none" 
       d="
   M183.934067,117.150063 
       C185.259567,117.784004 186.599960,118.388763 187.908020,119.056839 
       C194.318741,122.331032 196.584595,128.616470 193.069336,134.889145 
       C188.209518,143.561081 181.196014,149.745926 171.230286,152.155533 
       C168.854019,152.730103 167.155304,153.677597 167.710907,157.148499 
       C169.278793,166.943329 164.112946,173.015945 154.225861,171.575882 
       C147.050369,170.530746 140.257706,166.857361 133.097488,163.764404 
       C134.260544,163.382217 135.625870,163.561478 136.979416,163.806030 
       C143.230530,164.935425 149.459778,166.850479 155.732727,167.002258 
       C161.680084,167.146164 163.116623,164.102722 161.391037,157.881912 
       C152.062820,161.687820 142.528168,163.821091 132.523499,160.817978 
       C131.181580,159.660263 129.839676,158.502533 128.540512,157.381699 
       C127.617867,158.351501 126.834961,159.212875 126.011681,160.033768 
       C118.934952,167.089951 110.372902,165.771744 105.696381,156.848114 
       C101.035950,147.955185 101.515350,138.417633 102.217590,128.436966 
       C103.728165,135.454422 104.946701,142.099304 106.664169,148.612625 
       C107.357521,151.242081 108.859673,153.791168 110.490631,156.011902 
       C113.577667,160.215210 116.704582,160.156265 120.952858,155.968704 
       C112.876656,148.089661 103.054283,141.055496 105.023254,127.665253 
       C104.700188,127.388618 104.496353,127.065994 104.238190,127.014221 
       C89.898399,124.138290 87.584465,112.957977 98.111595,102.192368 
       C101.751724,98.469780 106.356209,95.490311 110.968361,93.002136 
       C113.287277,91.751122 116.610046,92.360878 119.670425,92.113686 
       C119.080002,89.931473 118.577179,88.379463 118.244606,86.791794 
       C116.645500,79.157875 120.787270,73.005951 128.591766,72.281609 
       C137.610016,71.444633 145.385605,75.262253 152.747375,79.982956 
       C153.028961,80.163528 152.941818,80.919151 152.701263,81.773674 
       C151.900848,82.105171 151.425674,82.069801 150.902512,81.678627 
       C144.434967,77.911407 137.690506,75.931854 130.338974,76.826126 
       C124.261345,77.565422 122.815315,79.975380 124.404663,84.596504 
       C133.497833,83.694191 142.266937,82.824043 151.035172,82.253174 
       C151.693680,82.390625 152.353027,82.228798 153.012390,82.066978 
       C155.543686,85.351929 157.993011,85.381996 161.470276,82.893242 
       C169.686539,77.012657 176.227783,78.795799 180.804153,87.921219 
       C184.976715,96.241486 185.005554,105.176727 183.627090,114.448990 
       C182.349030,105.694191 181.703384,96.630150 176.203964,88.840576 
       C174.366608,86.238091 172.357834,84.382263 168.873657,84.983528 
       C165.295013,85.601097 166.164642,88.748329 165.028625,90.690018 
       C163.539963,91.500130 161.705811,92.353737 161.298752,93.654099 
       C159.205414,100.340973 157.478683,107.142616 155.364700,114.849243 
       C160.324173,115.794708 164.142242,117.123917 167.962112,117.129128 
       C176.666763,117.141006 179.010925,113.455048 175.022736,105.519699 
       C172.387787,100.276962 168.497711,95.665047 165.455795,90.362854 
       C174.999023,95.589897 181.340576,103.167030 181.214340,114.572548 
       C181.185974,117.135750 182.016296,117.352478 183.934067,117.150063 
   M177.140503,135.591385 
       C178.655273,131.884674 180.170059,128.177963 181.684830,124.471252 
       C181.290207,123.951378 180.895584,123.431511 180.500961,122.911636 
       C175.135025,124.052261 169.662674,124.838875 164.427048,126.412880 
       C155.620148,129.060547 154.321060,133.293381 159.441925,141.058334 
       C160.169769,142.161987 161.050949,143.164490 161.779190,144.267929 
       C163.921799,147.514404 166.903305,147.656677 169.383636,145.356384 
       C172.232193,142.714569 174.402176,139.341049 177.140503,135.591385 
   M129.012344,108.718552 
       C127.536751,105.793457 126.358086,102.663200 124.513313,99.993172 
       C121.987564,96.337570 119.210388,96.234329 115.786171,99.288322 
       C109.626785,104.781792 106.568695,111.908981 104.825302,120.285973 
       C114.216133,121.131256 122.105186,117.810936 130.095840,114.246445 
       C129.729965,112.407722 129.440994,110.955467 129.012344,108.718552 
   M127.011696,145.314804 
       C127.630386,142.908463 128.377991,140.526810 128.844543,138.091309 
       C130.507324,129.411194 127.706276,126.343605 118.613708,126.760948 
       C117.616287,126.806732 116.622131,126.921326 115.625984,126.997688 
       C110.718941,127.373886 108.990166,129.250397 109.794189,134.059799 
       C111.203300,142.488525 116.402145,148.585876 122.708282,154.589966 
       C124.256264,151.427322 125.561333,148.760971 127.011696,145.314804 
   M132.404175,98.078690 
       C135.945053,101.021896 139.485931,103.965096 143.901398,107.635277 
       C146.926224,103.495277 150.087204,99.967705 152.305450,95.923088 
       C154.862366,91.260956 153.296722,87.976227 148.227264,86.635193 
       C140.541061,84.601959 132.964066,85.756714 124.735504,88.050308 
       C127.372925,91.554276 129.637329,94.562675 132.404175,98.078690 
   M133.726624,154.890076 
       C142.482208,161.124771 151.492935,157.895065 160.454437,156.490616 
       C160.796509,155.864243 161.138565,155.237854 161.480621,154.611481 
       C155.542511,148.666916 149.604401,142.722366 143.701584,136.813141 
       C141.261627,138.721634 139.545547,139.612198 138.462082,140.997528 
       C135.417435,144.890381 131.210495,148.433746 133.726624,154.890076 
   M182.601288,128.066040 
       C179.930634,135.266449 177.259979,142.466858 174.086777,151.022156 
       C179.005615,145.697189 183.384567,141.298431 187.307281,136.524796 
       C188.681015,134.853073 189.834595,132.083450 189.454773,130.133453 
       C189.035080,127.978806 186.740875,126.189285 185.263077,124.240738 
       C184.432053,125.249008 183.601028,126.257271 182.601288,128.066040 
   M104.872421,110.517166 
       C106.838272,105.779877 108.804123,101.042587 111.074600,95.571198 
       C104.567970,99.386650 100.367477,104.235146 97.600395,110.352280 
       C95.172371,115.719856 96.629288,118.417450 102.660950,119.927795 
       C103.369690,117.061951 104.078453,114.195999 104.872421,110.517166 
   M138.159134,123.188889 
       C140.311813,124.362770 142.476288,126.490517 144.614120,126.464073 
       C147.167099,126.432495 149.092026,123.820969 147.722015,121.062897 
       C146.844543,119.296394 144.632446,116.964348 143.103043,117.024696 
       C140.507538,117.127098 137.630539,118.613708 138.159134,123.188889 
   z"/>
   <path fill="#196D7A" opacity="1.000000" stroke="none" 
       d="
   M165.341400,90.939583 
       C166.164642,88.748329 165.295013,85.601097 168.873657,84.983528 
       C172.357834,84.382263 174.366608,86.238091 176.203964,88.840576 
       C181.703384,96.630150 182.349030,105.694191 183.623260,114.879539 
       C184.014038,115.514061 184.011246,115.982368 183.971252,116.800369 
       C182.016296,117.352478 181.185974,117.135750 181.214340,114.572548 
       C181.340576,103.167030 174.999023,95.589897 165.494720,90.378662 
       C165.247421,90.802315 165.341400,90.939583 165.341400,90.939583 
   z"/>
   <path fill="#196D7A" opacity="1.000000" stroke="none" 
       d="
   M132.184540,160.849579 
       C142.528168,163.821091 152.062820,161.687820 161.391037,157.881912 
       C163.116623,164.102722 161.680084,167.146164 155.732727,167.002258 
       C149.459778,166.850479 143.230530,164.935425 136.979416,163.806030 
       C135.625870,163.561478 134.260544,163.382217 132.790192,163.574982 
       C131.864243,163.089905 128.583344,162.867004 132.184540,160.849579 
   z"/>
   <path fill="#EBEBF0" opacity="0.000000" stroke="none" 
       d="
   M631.624756,117.321320 
       C630.590515,118.443344 629.905762,119.534668 628.928345,119.972572 
       C627.322205,120.692123 625.526306,120.988022 623.810425,121.462555 
       C623.354309,119.813103 622.566345,118.174873 622.510071,116.511871 
       C622.387390,112.887405 622.676208,109.250832 622.723999,105.618256 
       C622.774414,101.787170 625.057495,101.647728 627.742798,102.708992 
       C631.770081,104.300636 633.561340,107.423004 633.007996,111.729218 
       C632.779724,113.505760 632.240601,115.242355 631.624756,117.321320 
   z"/>
   <path fill="#EEEEF2" opacity="0.000000" stroke="none" 
       d="
   M427.023010,116.594444 
       C427.038574,112.836243 427.161011,109.523888 427.123413,106.213356 
       C427.079956,102.385887 429.153198,101.682892 432.298187,102.587440 
       C436.146027,103.694130 438.207825,107.623863 437.618439,112.526604 
       C436.974274,117.885246 434.072235,121.055466 429.905151,121.394745 
       C425.995026,121.713097 427.507355,118.808113 427.023010,116.594444 
   z"/>
   <path fill="#F5F5F7" opacity="0.000000" stroke="none" 
       d="
   M376.982788,134.515045 
       C379.546967,134.514984 381.658142,134.514984 384.675812,134.514984 
       C381.419434,127.918327 378.522888,122.050690 375.171509,115.261627 
       C370.093384,125.385384 365.333771,134.874069 360.169647,145.169266 
       C371.245239,145.169266 381.481354,145.348145 391.705597,145.078354 
       C395.615906,144.975174 397.625977,146.248260 398.114258,150.458191 
       C382.844269,150.458191 367.665100,150.458191 351.576538,150.458191 
       C359.331543,134.916687 367.001343,119.545921 375.112640,103.290375 
       C381.422241,115.886856 387.251404,127.524132 393.320557,139.640549 
       C385.030426,139.640549 377.207031,139.640549 369.388397,139.640549 
       C369.821198,135.334686 372.407257,133.872238 376.982788,134.515045 
   z"/>
   <path fill="#04606F" opacity="1.000000" stroke="none" 
       d="
   M177.003723,135.938370 
       C174.402176,139.341049 172.232193,142.714569 169.383636,145.356384 
       C166.903305,147.656677 163.921799,147.514404 161.779190,144.267929 
       C161.050949,143.164490 160.169769,142.161987 159.441925,141.058334 
       C154.321060,133.293381 155.620148,129.060547 164.427048,126.412880 
       C169.662674,124.838875 175.135025,124.052261 180.500961,122.911636 
       C180.895584,123.431511 181.290207,123.951378 181.684830,124.471252 
       C180.170059,128.177963 178.655273,131.884674 177.003723,135.938370 
   z"/>
   <path fill="#045F6E" opacity="1.000000" stroke="none" 
       d="
   M129.082184,109.110878 
       C129.440994,110.955467 129.729965,112.407722 130.095840,114.246445 
       C122.105186,117.810936 114.216133,121.131256 104.825302,120.285973 
       C106.568695,111.908981 109.626785,104.781792 115.786171,99.288322 
       C119.210388,96.234329 121.987564,96.337570 124.513313,99.993172 
       C126.358086,102.663200 127.536751,105.793457 129.082184,109.110878 
   z"/>
   <path fill="#035F6E" opacity="1.000000" stroke="none" 
       d="
   M126.939056,145.704712 
       C125.561333,148.760971 124.256264,151.427322 122.708282,154.589966 
       C116.402145,148.585876 111.203300,142.488525 109.794189,134.059799 
       C108.990166,129.250397 110.718941,127.373886 115.625984,126.997688 
       C116.622131,126.921326 117.616287,126.806732 118.613708,126.760948 
       C127.706276,126.343605 130.507324,129.411194 128.844543,138.091309 
       C128.377991,140.526810 127.630386,142.908463 126.939056,145.704712 
   z"/>
   <path fill="#035F6E" opacity="1.000000" stroke="none" 
       d="
   M165.028625,90.690018 
       C165.341400,90.939583 165.247421,90.802315 165.208496,90.786507 
       C168.497711,95.665047 172.387787,100.276962 175.022736,105.519699 
       C179.010925,113.455048 176.666763,117.141006 167.962112,117.129128 
       C164.142242,117.123917 160.324173,115.794708 155.364700,114.849243 
       C157.478683,107.142616 159.205414,100.340973 161.298752,93.654099 
       C161.705811,92.353737 163.539963,91.500130 165.028625,90.690018 
   z"/>
   <path fill="#045F6E" opacity="1.000000" stroke="none" 
       d="
   M132.152954,97.824883 
       C129.637329,94.562675 127.372925,91.554276 124.735504,88.050308 
       C132.964066,85.756714 140.541061,84.601959 148.227264,86.635193 
       C153.296722,87.976227 154.862366,91.260956 152.305450,95.923088 
       C150.087204,99.967705 146.926224,103.495277 143.901398,107.635277 
       C139.485931,103.965096 135.945053,101.021896 132.152954,97.824883 
   z"/>
   <path fill="#035F6E" opacity="1.000000" stroke="none" 
       d="
   M133.463074,154.618073 
       C131.210495,148.433746 135.417435,144.890381 138.462082,140.997528 
       C139.545547,139.612198 141.261627,138.721634 143.701584,136.813141 
       C149.604401,142.722366 155.542511,148.666916 161.480621,154.611481 
       C161.138565,155.237854 160.796509,155.864243 160.454437,156.490616 
       C151.492935,157.895065 142.482208,161.124771 133.463074,154.618073 
   z"/>
   <path fill="#1A6E7B" opacity="1.000000" stroke="none" 
       d="
   M182.685638,127.665787 
       C183.601028,126.257271 184.432053,125.249008 185.263077,124.240738 
       C186.740875,126.189285 189.035080,127.978806 189.454773,130.133453 
       C189.834595,132.083450 188.681015,134.853073 187.307281,136.524796 
       C183.384567,141.298431 179.005615,145.697189 174.086777,151.022156 
       C177.259979,142.466858 179.930634,135.266449 182.685638,127.665787 
   z"/>
   <path fill="#146A78" opacity="1.000000" stroke="none" 
       d="
   M151.036026,81.953896 
       C142.266937,82.824043 133.497833,83.694191 124.404663,84.596504 
       C122.815315,79.975380 124.261345,77.565422 130.338974,76.826126 
       C137.690506,75.931854 144.434967,77.911407 150.925201,81.659767 
       C150.995880,81.996712 151.036026,81.953896 151.036026,81.953896 
   z"/>
   <path fill="#116876" opacity="1.000000" stroke="none" 
       d="
   M104.829819,110.923615 
       C104.078453,114.195999 103.369690,117.061951 102.660950,119.927795 
       C96.629288,118.417450 95.172371,115.719856 97.600395,110.352280 
       C100.367477,104.235146 104.567970,99.386650 111.074600,95.571198 
       C108.804123,101.042587 106.838272,105.779877 104.829819,110.923615 
   z"/>
   <path fill="#126876" opacity="1.000000" stroke="none" 
       d="
   M138.156067,122.791061 
       C137.630539,118.613708 140.507538,117.127098 143.103043,117.024696 
       C144.632446,116.964348 146.844543,119.296394 147.722015,121.062897 
       C149.092026,123.820969 147.167099,126.432495 144.614120,126.464073 
       C142.476288,126.490517 140.311813,124.362770 138.156067,122.791061 
   z"/>
   <path fill="#146A78" opacity="1.000000" stroke="none" 
       d="
   M153.022583,82.100296 
       C152.353027,82.228798 151.693680,82.390625 151.035172,82.253174 
       C151.036026,81.953896 150.995880,81.996712 150.973206,82.015572 
       C151.425674,82.069801 151.900848,82.105171 152.736252,82.151230 
       C153.096497,82.161911 153.032791,82.133621 153.022583,82.100296 
   z"/>
   </svg>